<svg width="600" height="67" viewBox="0 0 600 67" fill="none" xmlns="http://www.w3.org/2000/svg">
<path d="M44.5985 31.8755L40.7885 46.1446H54.982C53.8421 46.9203 52.6218 47.571 51.3423 48.0852C48.4936 49.2505 44.7837 49.8407 40.328 49.8407C37.1886 49.8949 34.0721 49.2971 31.176 48.0852C28.6796 47.0459 26.5363 45.3094 25.003 43.0837C23.5216 40.8398 22.7987 38.1808 22.9403 35.4965C22.9731 32.4592 23.8842 29.4961 25.5637 26.9641C27.2827 24.4892 29.6676 22.5507 32.4427 21.3724C35.7327 19.9874 39.2766 19.3059 42.8462 19.3719C45.1041 19.3781 47.3531 19.6551 49.5449 20.1971C51.7766 20.753 53.8829 21.7254 55.753 23.0629C56.6934 23.8264 57.5723 24.6625 58.3814 25.5637C58.3814 25.5637 58.5066 25.7537 58.6267 25.9538L79.7392 17.0612C78.7999 15.4459 77.6887 13.9367 76.4249 12.5599C72.4329 8.2656 67.4477 5.01475 61.906 3.09213C55.9553 1.00465 49.6886 -0.0410042 43.3819 0.00123006C35.2814 0.00123006 27.9118 1.54668 21.4734 4.60257C15.2408 7.47207 9.90952 11.9852 6.05338 17.6564C2.27347 23.263 0.24583 29.8149 0.015531 37.127C-0.184729 43.5439 1.55253 49.2255 5.17724 54.0119C8.74799 58.7451 13.4533 62.5049 18.86 64.9451C24.3322 67.4458 29.6991 68.7012 34.8158 68.7012C38.3145 68.747 41.7933 68.1695 45.0891 66.9957C48.0488 65.9219 50.7836 64.3092 53.1546 62.2393C55.3581 60.2717 57.222 57.9551 58.6718 55.3823H58.9071L53.1947 67.4158H72.1543L81.6667 31.8555L44.5985 31.8755Z" fill="white"/>
<path d="M507.528 1.48145C507.528 1.48145 497.02 41.1811 496.47 44.3595C495.974 46.9971 495.703 49.672 495.659 52.3554H495.159L489.96 1.48145H454.728L438.216 63.1498L429.244 1.48145H402.294L359.962 63.7246L358.691 56.3083C358.191 53.2699 357.35 50.8711 356.189 49.167C355.113 47.5026 353.537 46.2218 351.686 45.5089C349.652 44.8221 347.517 44.4842 345.371 44.5094L345.516 43.9597H345.566C349.591 43.9629 353.532 42.8205 356.93 40.6664C360.412 38.4961 363.313 35.5116 365.381 31.9708C367.472 28.4897 368.639 24.5338 368.774 20.4767C368.92 17.1582 368.19 13.8597 366.657 10.9116C365.131 8.03309 362.654 5.71927 359.332 4.03014C356.009 2.341 351.776 1.53142 346.712 1.53142H305.456L287.778 67.5876H311.115L316.8 46.3135H325.871C327.057 46.2873 328.239 46.4475 329.374 46.7882C330.202 47.0405 330.923 47.5588 331.426 48.2625C331.982 49.1507 332.304 50.165 332.361 51.211L334.128 67.5876H383.48L388.709 59.2618H414.683L415.444 67.5876H459.537C459.537 67.5876 470.045 27.8929 470.59 24.7095C471.086 22.0719 471.357 19.397 471.401 16.7136H471.901L477.09 67.5926H512.322L530 1.53642L507.528 1.48145ZM344.45 28.8524C343.93 29.8383 343.125 30.6446 342.139 31.1662C340.946 31.7617 339.623 32.0503 338.291 32.0058H319.317L322.574 19.897H339.222C340.475 19.8529 341.724 20.0832 342.879 20.5717C343.721 20.931 344.423 21.5536 344.881 22.3458C345.303 23.1248 345.504 24.0045 345.461 24.8895C345.398 26.2655 345.054 27.6141 344.45 28.8524ZM400.558 40.3465L404.411 34.2047C406.363 31.1604 408.109 27.9882 409.634 24.7095C410.775 22.0946 411.725 19.4006 412.477 16.6487H412.897C412.307 18.9369 411.971 21.2833 411.896 23.6451C411.871 27.0849 412.038 30.5235 412.397 33.9448L412.982 40.3415L400.558 40.3465Z" fill="white"/>
<path d="M594.804 15.1525C591.071 10.5334 586.167 6.9916 580.6 4.8931C574.781 2.62351 568.586 1.46618 562.337 1.4816H536.386L518.704 67.4074H558.698C566.506 67.4074 573.558 65.941 579.669 63.0532C585.6 60.3217 590.656 56.0057 594.274 50.5843C597.842 45.2127 599.779 38.8535 599.984 31.6814C600.185 25.2723 598.443 19.7112 594.804 15.1525ZM574.249 40.9632C572.696 43.1498 570.56 44.86 568.083 45.9009C565.137 47.1155 561.971 47.7082 558.784 47.6416H547.377L554.494 21.2474H561.371C563.849 21.2544 566.307 21.6932 568.633 22.5441C570.908 23.3441 572.929 24.7313 574.489 26.5641C575.991 28.3397 576.706 30.619 576.621 33.3372C576.6 36.0564 575.775 38.7091 574.249 40.9632Z" fill="white"/>
<path d="M96.2445 31.9337L72.037 67.4073H143.352L148.26 49.0193H103.185L107.968 42.0084H150.133L154.444 25.9258H113.421L119.225 31.9337H96.2445Z" fill="white"/>
<path d="M117.037 1.48145H89.6296L97.6145 9.62959L117.037 1.48145Z" fill="white"/>
<path d="M293.529 16.7135C295.795 8.29948 290.793 1.48145 282.355 1.48145H116.965L105.741 18.0552L107.486 19.8607H178.487L165.732 67.4074H189.066L201.801 19.8607H224.309L211.564 67.4074H267.114C276.933 67.4074 287.031 59.4721 289.672 49.6765C292.313 39.8809 286.491 31.9456 276.668 31.9456H274.167C282.58 31.9506 291.258 25.1276 293.529 16.7135ZM240.8 42.0206H262.157C263.568 42.0206 264.593 42.3048 265.214 42.8684C265.507 43.1308 265.737 43.4561 265.886 43.8198C266.035 44.1835 266.099 44.5761 266.074 44.9682C266.064 46.0425 265.652 47.0743 264.918 47.861C264.521 48.2644 264.041 48.5776 263.511 48.779C262.981 48.9804 262.413 49.0654 261.847 49.0281H238.924L240.8 42.0206ZM246.737 19.8607H267.244C268.155 19.792 269.059 20.0641 269.78 20.6238C270.035 20.8322 270.237 21.0964 270.373 21.3957C270.508 21.695 270.572 22.0214 270.56 22.3495C270.571 22.8372 270.481 23.322 270.297 23.7739C270.113 24.2259 269.839 24.6356 269.49 24.978C268.696 25.6646 267.663 26.0122 266.614 25.9456H245.106L246.737 19.8607Z" fill="white"/>
<path d="M598.744 1.30286C598.514 0.887673 598.18 0.556078 597.785 0.348435C597.315 0.118658 596.809 0 596.296 0C595.784 0 595.277 0.118658 594.808 0.348435C594.412 0.555977 594.078 0.88756 593.848 1.30286C593.632 1.72377 593.518 2.20027 593.518 2.68519C593.518 3.1701 593.632 3.6466 593.848 4.06751C594.078 4.48281 594.412 4.81439 594.808 5.02194C595.277 5.25171 595.784 5.37037 596.296 5.37037C596.809 5.37037 597.315 5.25171 597.785 5.02194C598.18 4.81429 598.514 4.4827 598.744 4.06751C598.96 3.64691 599.074 3.17029 599.074 2.68519C599.074 2.20008 598.96 1.72346 598.744 1.30286ZM597.88 4.19318C597.5 4.57495 596.974 4.76532 596.301 4.76426C595.629 4.7632 595.099 4.57283 594.711 4.19318C594.531 3.99631 594.388 3.76121 594.29 3.50171C594.192 3.24221 594.142 2.96353 594.142 2.682C594.142 2.40047 594.192 2.12179 594.29 1.86229C594.388 1.60279 594.531 1.36769 594.711 1.17082C595.091 0.791171 595.621 0.600802 596.301 0.599741C596.981 0.598681 597.508 0.78905 597.88 1.17082C598.061 1.36747 598.204 1.60249 598.302 1.86202C598.4 2.12155 598.451 2.40035 598.451 2.682C598.451 2.96365 598.4 3.24245 598.302 3.50198C598.204 3.76151 598.061 3.99653 597.88 4.19318Z" fill="white"/>
<path d="M597.172 2.92437C597.235 2.85141 597.285 2.75933 597.318 2.65524C597.351 2.55116 597.367 2.43787 597.364 2.32407C597.367 2.20893 597.351 2.09425 597.318 1.98868C597.285 1.88312 597.235 1.78941 597.172 1.71461C597.009 1.54573 596.807 1.46408 596.604 1.48453H595.556V3.88885H596.037V3.14834H596.546L596.875 3.88885H597.407L597.018 3.04932C597.074 3.019 597.126 2.97684 597.172 2.92437ZM596.578 2.0559C596.658 2.04934 596.737 2.077 596.805 2.13513C596.83 2.16056 596.851 2.1945 596.865 2.2339C596.879 2.27329 596.885 2.31687 596.884 2.36063C596.884 2.40578 596.878 2.45058 596.864 2.49153C596.85 2.53249 596.83 2.56851 596.805 2.5968C596.739 2.66341 596.659 2.69576 596.578 2.6882H596.01V2.05133L596.578 2.0559Z" fill="white"/>
</svg>
